#!OML:ASF E:/inclinewalkrobotboard/Project1/Captureday1/Session1/subject1.ASF
:FULLY-SPECIFIED
:DEGREES
326
root 0 0 0 -1.2867623497026774 -1.1316618610095401 -3.9437960360286706
lowerback 20.457878412330608 2.679850103610966 -0.5919433025757743
upperback 2.3925432665823667 3.6003515168807754 -0.06369067357427916
thorax -8.852868216133245 1.7537396883312817 -0.3549104118000812
lowerneck -7.5215633609316725 -5.987229563630398 -0.9984123729872418
upperneck 1.4467542974673115 -8.550596750402738 5.0798526461236975
head 2.112015926952729 -3.9358330313303274 1.2035692495150347
rclavicle 1.7510557040298674E-15 -7.276634527851211E-16
rhumerus 29.86371088556433 -11.008166277938606 -34.905279520339576
rradius 136.68764456095832
rwrist -15.523282063585826
rhand -19.648079249012056 -29.580906943370707
rfingers 7.125019999999967
rthumb 6.702921062135754 -59.42299598994855
lclavicle -4.497851117722588E-16 -9.300968929983302E-17
lhumerus -47.100750517333495 -6.233505226979955 79.83284396460603
lradius 61.92652874626053
lwrist 10.96453065856857
lhand -14.69862044709334 -19.524633964573503
lfingers 7.125019999999859
lthumb 11.374406934048771 10.267565875697304
rfemur -23.52443156629191 4.01294408152207 30.691824723055227
rtibia 57.32093047642798
rfoot -7.469051092753009 -6.7573079441507975
rtoes 10.035626765131667
lfemur -13.013043150420268 0.22884301522474626 -19.093850052602598
ltibia 50.23439735557267
lfoot 4.854003312020481 -11.960486870580088
ltoes 3.317539190238463
327
root 0 0 0 -1.238869052468881 -1.0779337182859197 -3.9532575480497347
lowerback 20.482060887491585 2.6350403541081304 -0.6749321566663085
upperback 2.394395906943261 3.540008358198155 -0.006958009617440086
thorax -8.86251234192462 1.7259439596432533 -0.2422337112839054
lowerneck -7.360187684544346 -5.985300692136237 -0.9291974599472062
upperneck 1.671128414472447 -8.535555079095053 4.988832292686297
head 2.172603321024508 -3.932419449611243 1.1634878128661377
rclavicle 1.6132157768766328E-15 -6.899590832195366E-16
rhumerus 29.75177409223115 -11.315916150241335 -34.6353665323647
rradius 136.49881628006605
rwrist -16.195153186630023
rhand -19.515958983044047 -29.913318981703625
rfingers 7.125019999999967
rthumb 6.828669328053473 -59.74778841600935
lclavicle -6.217834006127039E-16 -5.749327719794634E-17
lhumerus -47.01382843920247 -6.347120537570776 80.02912113331124
lradius 61.95898734719839
lwrist 10.924611737577429
lhand -14.62129623228843 -19.658632656195017
lfingers 7.125019999999862
lthumb 11.44989584497183 10.105063167338365
rfemur -23.77479200405608 3.6584998191736275 30.46574092482436
rtibia 58.898019342796395
rfoot -6.960158737561704 -6.22241435402575
rtoes 11.02559789035185
lfemur -13.036952509336801 0.8582747240729707 -17.824909984409388
ltibia 55.058672372934595
lfoot 4.462733817409731 -12.072987407548439
ltoes -0.8929154011831457
328
root 0 0 0 -1.2125068702527615 -1.0476051361230714 -3.9696246628248244
lowerback 20.463581173800677 2.6343070045050405 -0.6791927909729811
upperback 2.331548635856374 3.5405834596649957 -0.012501009884522185
thorax -8.92025724910248 1.725367110531725 -0.24709171987792364
lowerneck -7.361749490422264 -5.986150278111557 -0.9067648090067244
upperneck 1.5418244035922832 -8.540116445399804 4.984823929771435
head 2.134852545118669 -3.934487337465436 1.159989732067893
rclavicle 1.0465927170110275E-15 -5.0788623386768E-16
rhumerus 30.8536457931827 -11.002905861082596 -33.29227721200792
rradius 138.35573148809726
rwrist -18.248503467142843
rhand -19.375727286112586 -30.557240452382867
rfingers 7.125019999999967
rthumb 6.962559168162031 -60.37832130198154
lclavicle -9.269505439109808E-16 1.1615785138338542E-16
lhumerus -46.90270524878646 -6.486991934922413 80.26707941452622
lradius 62.011954404250005
lwrist 10.868119160520179
lhand -14.523938742866985 -19.875216583131763
lfingers 7.125019999999866
lthumb 11.54568931001176 9.85317356799476
rfemur -23.293079657708994 3.776384509872428 30.616731220411317
rtibia 57.63759181028165
rfoot -7.508597497053047 -6.011043374732816
rtoes 11.705257575549009
lfemur -14.519392365049514 1.7840758767713862 -16.223377347758387
ltibia 60.22922691738327
lfoot 3.1237095224108344 -11.431852352868347
ltoes -4.821146180791544
329
root 0 0 0 -1.2172646210472586 -1.0546994044715403 -3.9907563487381923
lowerback 20.397524714371905 2.696303512198316 -0.5756115424924091
upperback 2.204149790423112 3.6274319098663943 -0.1017020119716997
thorax -9.023417048775102 1.7636447772617605 -0.41149745260489423
lowerneck -7.572607387029774 -5.992121573194695 -0.9553566191191665
upperneck 0.9961666209391389 -8.573296399814813 5.105287627111862
head 1.9827722532060683 -3.944460735406814 1.2086301161045614
rclavicle 2.1065923754613958E-16 -1.9262291303342477E-16
rhumerus 32.713767862948885 -9.974640396593792 -31.374209697704263
rradius 141.67756196187395
rwrist -21.061960530458965
rhand -19.239846466177546 -31.297494000439492
rfingers 7.1250199999999655
rthumb 7.092450686286608 -61.10354191365521
lclavicle -1.3866807448918822E-15 3.9181731518285413E-16
lhumerus -46.78957986323365 -6.627965276294546 80.50029204997982
lradius 62.081984495665694
lwrist 10.805880458011064
lhand -14.423344473763384 -20.14446891622757
lfingers 7.125019999999871
lthumb 11.645583292384575 9.547939981776569
rfemur -21.888119286002574 4.451008532291901 31.169477055040907
rtibia 52.72786638212217
rfoot -9.541866351541447 -6.210185422923308
rtoes 11.951901122866698
lfemur -17.277917501598573 2.71838316333776 -14.813942470472071
ltibia 63.8195092911552
lfoot 1.2724807650887726 -10.192111416629384
ltoes -6.777404418431978
330
root 0 0 0 -1.2555125150019597 -1.1081043364198786 -4.00885010397051
lowerback 20.268575067441965 2.809127577381041 -0.3708158293990933
upperback 2.0815964197730668 3.7842633977356464 -0.25636974294979
thorax -9.087482632087022 1.8332938480117482 -0.7088138922541968
lowerneck -7.938418596640383 -5.9984412717423155 -1.084172609246975
upperneck 0.18384585708269086 -8.621275354459492 5.338187275493645
head 1.751649122851373 -3.9574288802152493 1.30644730112142
rclavicle -5.0442489703172815E-16 1.726704108559459E-16
rhumerus 34.38418129939215 -8.417294712934071 -29.839742061656743
rradius 144.99682127864247
rwrist -23.39608139057465
rhand -19.129996878296247 -31.764821208723053
rfingers 7.125019999999963
rthumb 7.197613681362334 -61.56044171091732
lclavicle -1.9037363168928886E-15 6.749915134890773E-16
lhumerus -46.74071593722705 -6.714547510368812 80.63067415093923
lradius 62.147888149773934
lwrist 10.763883026713627
lhand -14.353587929577525 -20.35427193334619
lfingers 7.125019999999875
lthumb 11.716246883374296 9.311238403856084
rfemur -18.730571568693264 5.751909017466794 32.22243451756979
rtibia 44.37597613996455
rfoot -12.965038309751584 -6.8099287568447
rtoes 11.458339889374944
lfemur -19.734221397785305 3.293929704707151 -14.016678018980059
ltibia 65.18291573412132
lfoot -0.23058274668629153 -9.009094870102341
ltoes -7.044201970365549
331
root 0 0 0 -1.3176745424871559 -1.1944390759307575 -4.01387844464931
lowerback 20.06755390648751 2.9174004352090575 -0.14582537884118107
upperback 2.0708702488858686 3.934809426667406 -0.3981091867373354
thorax -8.991135249886176 1.9006139518651959 -0.9993177299383625
lowerneck -8.280401894045205 -6.001727982694524 -1.262263897588004
upperneck -0.4762769975929384 -8.65608108369854 5.593399561522052
head 1.5488163795419982 -3.9662707322830997 1.4182324679474365
rclavicle -8.322662032232454E-16 3.7897191416153333E-16
rhumerus 35.49429116445011 -6.733242988165609 -29.070065650309978
rradius 147.43127029677242
rwrist -24.637894513269497
rhand -19.063482642224116 -31.802336812738627
rfingers 7.125019999999958
rthumb 7.262035506517933 -61.593109013951306
lclavicle -2.2084143846533823E-15 8.208670798357891E-16
lhumerus -46.831764723894615 -6.684280229751194 80.5633195820286
lradius 62.174684174075125
lwrist 10.761973518301994
lhand -14.346582460887467 -20.376512331575594
lfingers 7.125019999999876
lthumb 11.725813568472388 9.280578801872954
rfemur -13.436932723197653 7.41162749354543 33.750652660882416
rtibia 35.55089830640144
rfoot -16.557721452222353 -7.580492163672007
rtoes 9.952078583941063
lfemur -21.28858728728218 3.486676737102265 -13.75765936210971
ltibia 64.93628632326026
lfoot -1.19272953570243 -8.124969449577122
ltoes -6.508765992302479
332
root 0 0 0 -1.3821009876031825 -1.2895610808108617 -4.010492009939049
lowerback 19.859044509353744 2.985454977670723 0.01630038191629468
upperback 2.138748046146594 4.029744772886463 -0.47729793341924
thorax -8.80547328054081 1.9437532391452916 -1.1800936165387328
lowerneck -8.483729825487826 -5.998444786256885 -1.41169088371013
upperneck -0.7714320014885292 -8.664340645052981 5.7761143872092795
head 1.4444884015717445 -3.9666816365447506 1.501197936774921
rclavicle -8.722619537906296E-16 4.149266118569082E-16
rhumerus 36.141416180342176 -5.321199541240107 -28.85970480747325
rradius 148.97540732660332
rwrist -25.002024519478194
rhand -19.062248918281288 -31.566337246939888
rfingers 7.125019999999955
rthumb 7.264081909228494 -61.3579370592417
lclavicle -2.1740465292406667E-15 8.078347864080296E-16
lhumerus -47.034503585263124 -6.543164363901686 80.33072280074335
lradius 62.14758853929696
lwrist 10.786388923363113
lhand -14.396201143114267 -20.229086179701852
lfingers 7.125019999999874
lthumb 11.679720645308358 9.439594680196407
rfemur -7.954300754326553 8.513156652907181 34.95501010473984
rtibia 29.948834519675735
rfoot -19.16686849075871 -7.992165091805305
rtoes 8.317488066715256
lfemur -22.42043350051393 3.436264982324873 -13.773402115199783
ltibia 63.582552384547654
lfoot -1.8133567508645925 -7.395534464213237
ltoes -5.41415639241422
333
root 0 0 0 -1.4264664293004619 -1.3734897657557794 -4.008443663066188
lowerback 19.731218822957402 3.019816159384681 0.10189027352042901
upperback 2.191106080308514 4.0781182815269625 -0.5098411752447012
thorax -8.68071089086665 1.9658968940380834 -1.2650705914982256
lowerneck -8.570812248458331 -5.988013744663846 -1.4853136485330638
upperneck -0.8587674479469545 -8.653127091341737 5.861209693606156
head 1.4085874203053104 -3.960209631232525 1.5410171826008923
rclavicle -9.20926774960948E-16 4.3713141140016767E-16
rhumerus 36.464702303138694 -4.408482459982297 -28.878054261212583
rradius 149.88956284791558
rwrist -25.007623962914238
rhand -19.11522348200959 -31.320547792732594
rfingers 7.125019999999953
rthumb 7.213408519097519 -61.11745943044821
lclavicle -2.0121321552584804E-15 7.580676613823035E-16
lhumerus -47.21464414117526 -6.3871564993564345 80.09848156588845
lradius 62.09639693030083
lwrist 10.801003179349168
lhand -14.454367042750025 -20.083486026015045
lfingers 7.125019999999871
lthumb 11.62524536797779 9.605914967430111
rfemur -3.6652338354833573 8.90083400650354 35.5244881971555
rtibia 27.462226210189854
rfoot -20.727979926326064 -7.988244734932997
rtoes 7.1541213465997675
lfemur -23.471766100918728 3.224440764827331 -13.976716468662158
ltibia 61.28707373043932
lfoot -2.248234669719956 -6.7020044190736305
ltoes -3.695311615219829
